<?xml version="1.0" encoding="iso-8859-1"?>
<!-- Uploaded to: SVG Repo, www.svgrepo.com, Generator: SVG Repo Mixer Tools -->
<svg height="800px" width="800px" version="1.1" id="Layer_1" xmlns="http://www.w3.org/2000/svg" xmlns:xlink="http://www.w3.org/1999/xlink" 
	 viewBox="0 0 503.467 503.467" xml:space="preserve">
<g transform="translate(1 1)">
	<path style="fill:#F2EDDA;" d="M156.867,498.2h-51.2h-25.6c-4.267,0-8.533-4.267-8.533-8.533v-25.6c0-34.133,25.6-51.2,59.733-51.2
		S191,429.933,191,464.067v25.6c0,4.267-3.413,8.533-8.533,8.533H156.867z M395.8,498.2h-51.2H319c-5.12,0-8.533-4.267-8.533-8.533
		v-25.6c0-34.133,25.6-51.2,59.733-51.2s59.733,17.067,59.733,51.2v25.6c0,4.267-3.413,8.533-8.533,8.533H395.8z"/>
	<g>
		<path style="fill:#AAB1BA;" d="M165.4,31.427l-0.853,0.853c-12.8,8.533-24.747,22.187-24.747,22.187
			c-10.24,14.507-17.067,31.573-17.067,51.2V216.6c0,20.48,3.413,38.4,8.533,53.76l-1.707,0.853
			c-7.68,9.387-23.893,22.187-23.893,22.187s-6.827,4.267-16.213,8.533s-22.187,8.533-34.987,8.533
			c-9.387,0-13.653-7.68-17.067-17.067C11.8,216.6,3.267,122.733,3.267,80.067s33.28-76.8,75.093-76.8
			C114.2,3.267,150.893,14.36,165.4,31.427z M498.2,80.067c0,42.667-8.533,136.533-34.133,213.333
			c-3.413,9.387-7.68,17.067-17.067,17.067c-16.213,0-32.427-6.827-41.813-11.947c-5.973-3.413-9.387-5.12-9.387-5.12
			s-16.213-11.093-24.747-20.48l-1.707-0.853c6.827-16.213,9.387-34.987,9.387-55.467V105.667c0-18.773-5.973-36.693-17.067-51.2
			c0,0-9.387-15.36-24.747-23.04l-0.853-0.853c14.507-17.067,51.2-28.16,82.773-28.16C462.36,3.267,498.2,37.4,498.2,80.067z"/>
		<path style="fill:#AAB1BA;" d="M131.267,270.36c11.093,29.013,30.72,50.347,58.88,63.147c0,0,13.653,7.68,32.427,10.24h0.853
			c1.707,35.84,1.707,74.24,1.707,120.32H191c0-34.133-25.6-51.2-59.733-51.2c-25.6-17.067-34.133-59.733-34.133-76.8v-34.133h-7.68
			c9.387-4.267,16.213-8.533,16.213-8.533s16.213-12.8,23.893-22.187L131.267,270.36z M405.187,298.52l-0.853,3.413v34.133
			c0,17.067-8.533,59.733-34.133,76.8c-34.133,0-59.733,17.067-59.733,51.2h-34.133c0-46.08,0-84.48,1.707-120.32h1.707
			c16.213-2.56,30.72-11.093,30.72-11.093c28.16-11.947,47.787-32.427,58.88-61.44l1.707,0.853
			c8.533,9.387,24.747,20.48,24.747,20.48S399.213,295.96,405.187,298.52z"/>
		<path style="fill:#AAB1BA;" d="M222.573,343.747c-18.773-2.56-32.427-10.24-32.427-10.24c-28.16-11.947-48.64-33.28-58.88-63.147
			c-5.973-15.36-8.533-34.133-8.533-53.76V105.667c0-18.773,5.973-36.693,17.067-51.2c0,0,11.947-14.507,24.747-22.187l0.853-0.853
			l0,0c12.8-7.68,27.307-11.093,42.667-11.093H293.4c16.213,0,29.867,4.267,42.667,11.947c0,0,0-0.853,0.853-0.853l0.853,0.853
			c15.36,7.68,24.747,23.04,24.747,23.04c10.24,14.507,17.067,31.573,17.067,51.2v110.933c0,21.333-3.413,39.253-9.387,55.467
			c-11.093,28.16-30.72,49.493-58.88,61.44c0,0-14.507,7.68-30.72,11.093h-1.707c-1.707,35.84-1.707,74.24-1.707,119.467v8.533
			c0,5.12-3.413,8.533-8.533,8.533H234.52c-5.12,0-8.533-3.413-8.533-8.533v-8.533C225.133,417.987,225.133,379.587,222.573,343.747
			L222.573,343.747z"/>
	</g>
</g>
<path style="fill:#51565F;" d="M422.4,503.467H320c-6.827,0-12.8-5.973-12.8-12.8v-25.6c0-34.133,23.893-54.613,62.293-55.467
	c23.04-16.213,31.573-56.32,31.573-72.533c0-2.56,1.707-4.267,4.267-4.267s4.267,1.707,4.267,4.267
	c0,16.213-6.827,52.053-27.307,73.387c33.28,3.413,52.907,23.893,52.907,54.613v25.6C435.2,497.493,429.227,503.467,422.4,503.467z
	 M401.067,494.933H422.4c2.56,0,4.267-1.707,4.267-4.267v-25.6c0-29.013-20.48-46.933-55.467-46.933l0,0
	c-34.987,0-55.467,17.92-55.467,46.933v25.6c0,2.56,1.707,4.267,4.267,4.267h21.333v-12.8c0-2.56,1.707-4.267,4.267-4.267
	s4.267,1.707,4.267,4.267v12.8h42.667v-12.8c0-2.56,1.707-4.267,4.267-4.267s4.267,1.707,4.267,4.267V494.933z M183.467,503.467
	h-102.4c-6.827,0-12.8-5.973-12.8-12.8v-25.6c0-30.72,19.627-51.2,52.907-54.613c-20.48-20.48-27.307-57.173-27.307-73.387
	c0-2.56,1.707-4.267,4.267-4.267s4.267,1.707,4.267,4.267c0,16.213,7.68,56.32,31.573,72.533
	c38.4,0.853,62.293,21.333,62.293,55.467v25.6C196.267,497.493,190.293,503.467,183.467,503.467z M162.133,494.933h21.333
	c2.56,0,4.267-1.707,4.267-4.267v-25.6c0-29.013-20.48-46.933-55.467-46.933l0,0c-34.987,0-55.467,17.92-55.467,46.933v25.6
	c0,2.56,1.707,4.267,4.267,4.267H102.4v-12.8c0-2.56,1.707-4.267,4.267-4.267s4.267,1.707,4.267,4.267v12.8H153.6v-12.8
	c0-2.56,1.707-4.267,4.267-4.267s4.267,1.707,4.267,4.267V494.933z M268.8,486.4h-34.133c-7.68,0-12.8-5.12-12.8-12.8
	c0-111.787,0-179.2-17.067-263.68c-0.853-2.56,0.853-4.267,3.413-5.12c2.56-0.853,4.267,0.853,5.12,3.413
	C230.4,293.547,230.4,361.813,230.4,473.6c0,3.413,2.56,4.267,4.267,4.267H268.8c2.56,0,4.267-1.707,4.267-4.267
	c0-111.787,0-179.2,17.067-265.387c0.853-2.56,2.56-3.413,5.12-3.413c2.56,0.853,3.413,2.56,3.413,5.12
	C281.6,295.253,281.6,361.813,281.6,473.6C281.6,480.427,275.627,486.4,268.8,486.4z M311.467,338.773
	c-1.707,0-3.413-0.853-4.267-2.56c-0.853-2.56,0-4.267,2.56-5.973c42.667-17.92,65.707-58.027,65.707-112.64V106.667
	c0-17.92-5.12-34.133-16.213-48.64c-1.707-1.707-0.853-4.267,0.853-5.973c1.707-1.707,4.267-0.853,5.973,0.853
	C378.027,68.266,384,87.04,384,106.666V217.6c0,58.88-25.6,101.547-70.827,121.173C312.32,338.773,312.32,338.773,311.467,338.773z
	 M192,338.773c-0.853,0-0.853,0-1.707,0c-45.227-19.627-70.827-62.293-70.827-121.173V106.667c0-19.627,5.973-37.547,17.92-53.76
	c1.707-1.707,4.267-2.56,5.973-0.853c1.707,1.707,2.56,4.267,0.853,5.973C133.973,71.68,128,88.747,128,106.667V217.6
	c0,54.613,23.04,94.72,65.707,112.64c2.56,0.853,3.413,3.413,2.56,5.973C195.413,337.92,193.707,338.773,192,338.773z M448,315.733
	c-26.453,0-52.053-17.067-53.76-17.92c-1.707-1.707-2.56-4.267-0.853-5.973c1.707-1.707,4.267-2.56,5.973-0.853
	c0,0,24.747,16.213,48.64,16.213c5.973,0,9.387-3.413,12.8-14.507c24.747-74.24,34.133-167.253,34.133-211.627
	c0-40.107-33.28-72.533-74.24-72.533c-32.427,0-68.267,11.947-80.213,27.307c-1.707,1.707-3.413,1.707-5.12,0.853
	C323.413,29.867,309.76,25.6,294.4,25.6h-85.333c-14.507,0-28.16,3.413-40.96,11.093c-1.707,0.853-4.267,0.853-5.12-0.853
	C151.04,20.48,115.2,8.533,79.36,8.533c-40.107,0-70.827,31.573-70.827,72.533c0,44.373,9.387,137.387,34.133,211.627
	c3.413,10.24,6.827,14.507,12.8,14.507c23.893,0,48.64-16.213,48.64-16.213c1.707-1.707,4.267-0.853,5.973,0.853
	c1.707,1.707,0.853,4.267-0.853,5.973c-0.853,0.853-27.307,17.92-53.76,17.92c-14.507,0-18.773-13.653-21.333-19.627
	C8.533,220.16,0,126.293,0,81.067C0,35.84,34.987,0,79.36,0c35.84,0,71.68,11.093,87.893,27.307
	c12.8-6.827,26.453-10.24,41.813-10.24H294.4c15.36,0,29.013,3.413,41.813,10.24C351.573,11.093,387.413,0,420.693,0
	c45.227,0,82.773,36.693,82.773,81.067c0,45.227-9.387,139.093-34.133,215.04C466.773,302.08,462.507,315.733,448,315.733z
	 M341.333,179.2c-5.12,0-8.533-3.413-8.533-8.533s3.413-8.533,8.533-8.533s8.533,3.413,8.533,8.533S346.453,179.2,341.333,179.2z
	 M162.133,179.2c-5.12,0-8.533-3.413-8.533-8.533s3.413-8.533,8.533-8.533s8.533,3.413,8.533,8.533S167.253,179.2,162.133,179.2z"/>
</svg>